<svg xmlns="http://www.w3.org/2000/svg" viewBox="0 0 100 100">
  <defs>
    <style>
      .bg { fill: #003E73; }
      .fg { fill: #FFFFFF; }
    </style>
  </defs>

  <!-- Background -->
  <rect class="bg" width="100" height="100" rx="20"/>

  <!-- Intertwined S -->
  <g class="fg">
    <!-- First S -->
    <path d="M 35 25
             C 35 20, 40 15, 50 15
             C 60 15, 65 20, 65 25
             C 65 30, 60 35, 50 35
             L 40 35
             C 30 35, 25 40, 25 50
             C 25 55, 27 58, 30 60
             L 45 50
             C 50 47, 53 45, 55 45
             C 60 45, 65 48, 65 55
             C 65 60, 62 63, 58 65
             L 70 55
             C 73 52, 75 48, 75 45
             C 75 35, 68 28, 58 28
             L 50 28"/>

    <!-- Second S (interlaced) -->
    <path d="M 65 75
             C 65 80, 60 85, 50 85
             C 40 85, 35 80, 35 75
             C 35 70, 40 65, 50 65
             L 60 65
             C 70 65, 75 60, 75 50
             C 75 45, 73 42, 70 40
             L 55 50
             C 50 53, 47 55, 45 55
             C 40 55, 35 52, 35 45
             C 35 40, 38 37, 42 35
             L 30 45
             C 27 48, 25 52, 25 55
             C 25 65, 32 72, 42 72
             L 50 72"/>
  </g>
</svg>
