<?xml version="1.0" standalone="no"?>
<!DOCTYPE svg PUBLIC "-//W3C//DTD SVG 20010904//EN"
 "http://www.w3.org/TR/2001/REC-SVG-20010904//DTD/svg10.dtd">
<svg version="1.0" xmlns="http://www.w3.org/2000/svg"
 width="1072.000000pt" height="1072.000000pt" viewBox="0 0 1072.000000 1072.000000"
 preserveAspectRatio="xMidYMid meet">

<g transform="translate(0.000000,1072.000000) scale(0.100000,-0.100000)"
fill="#000000" stroke="none">
<path d="M2355 9809 c-147 -17 -359 -77 -470 -132 -338 -168 -595 -462 -710
-811 -73 -221 -70 -149 -70 -1536 0 -1366 -3 -1291 61 -1595 75 -356 166 -591
354 -915 78 -133 79 -135 187 -280 192 -256 483 -542 731 -718 402 -286 776
-441 1259 -524 108 -18 167 -22 383 -22 268 -1 389 13 591 64 389 100 750 315
1050 627 89 93 184 211 176 219 -2 3 -71 -25 -152 -61 -163 -72 -369 -144
-485 -170 -41 -9 -98 -23 -126 -31 -172 -46 -580 -80 -777 -64 -530 43 -974
207 -1382 511 -89 66 -312 264 -349 310 -11 13 -45 53 -75 89 -178 205 -279
358 -396 595 -118 240 -157 357 -214 640 -50 245 -52 328 -49 1445 4 1112 0
1038 57 1191 71 189 247 328 476 373 71 15 203 16 1171 14 l1092 -3 -107 -111
c-339 -353 -554 -657 -703 -994 -181 -408 -260 -762 -262 -1180 -2 -498 141
-911 436 -1258 158 -186 382 -347 603 -435 203 -81 360 -106 720 -117 313 -9
397 -23 546 -93 222 -103 403 -328 475 -592 26 -93 28 -114 28 -295 1 -250
-17 -378 -83 -590 -148 -479 -457 -907 -871 -1206 -210 -152 -489 -298 -670
-350 -25 -7 -76 -22 -115 -34 -127 -38 -307 -70 -450 -81 -167 -12 -2324 -14
-2337 -1 -4 4 -9 321 -10 705 l-3 697 -91 -123 c-149 -199 -318 -418 -504
-655 -96 -123 -181 -231 -187 -241 -10 -13 -10 -36 3 -111 39 -242 153 -466
333 -653 197 -205 417 -325 723 -394 67 -16 316 -17 3153 -20 2744 -3 3091 -2
3185 12 292 43 543 164 747 359 231 220 370 507 412 851 7 63 11 1035 13 3260
3 3049 2 3174 -16 3270 -56 305 -201 576 -418 780 -188 177 -386 285 -635 346
-212 51 -55 49 -3223 48 -1625 -1 -2986 -5 -3025 -10z m5970 -798 c278 -57
457 -213 542 -471 16 -51 18 -121 21 -1010 3 -942 -1 -1180 -20 -1180 -5 0
-72 61 -150 136 -180 174 -337 299 -518 414 -354 224 -685 351 -1091 420 -574
97 -1106 6 -1564 -267 -117 -70 -117 -70 -239 -164 -139 -108 -334 -309 -399
-411 -17 -27 -11 -38 9 -19 13 13 193 85 344 136 320 110 673 165 1050 165
380 0 697 -66 1040 -217 160 -70 333 -173 500 -297 472 -352 816 -897 955
-1515 63 -276 63 -286 67 -1441 3 -1190 8 -1113 -75 -1273 -83 -161 -257 -289
-449 -328 -36 -8 -387 -11 -1128 -10 -591 0 -1077 0 -1078 1 -2 0 63 66 146
147 164 163 238 245 335 373 395 524 593 1136 574 1770 -5 170 -17 275 -47
405 -127 563 -471 989 -972 1204 -239 103 -388 130 -763 141 -295 8 -329 13
-448 55 -84 31 -116 47 -192 98 -127 86 -203 175 -284 333 -151 298 -152 680
-1 1145 42 127 182 411 265 534 223 334 530 615 888 814 349 195 643 281 1107
324 19 2 361 4 760 5 671 2 732 0 815 -17z"/>
</g>
</svg>
